<svg preserveAspectRatio="none" overflow="visible" style="display: block;" width="18" height="18" viewBox="0 0 18 18" fill="none" xmlns="http://www.w3.org/2000/svg">
<g id="work">
<mask id="mask0_0_8" style="mask-type:alpha" maskUnits="userSpaceOnUse" x="0" y="0" width="18" height="18">
<rect id="Bounding box" width="18" height="18" fill="#D9D9D9"/>
</mask>
<g mask="url(#mask0_0_8)">
<path id="work_2" d="M3.45 16.125C3.01688 16.125 2.64609 15.9704 2.33766 15.6612C2.02922 15.352 1.875 14.9803 1.875 14.5461V5.86184C1.875 5.42763 2.02922 5.05592 2.33766 4.74671C2.64609 4.4375 3.01688 4.28289 3.45 4.28289H6.6V2.70395C6.6 2.26974 6.75422 1.89803 7.06266 1.58882C7.37109 1.27961 7.74188 1.125 8.175 1.125H11.325C11.7581 1.125 12.1289 1.27961 12.4373 1.58882C12.7458 1.89803 12.9 2.26974 12.9 2.70395V4.28289H16.05C16.4831 4.28289 16.8539 4.4375 17.1623 4.74671C17.4708 5.05592 17.625 5.42763 17.625 5.86184V14.5461C17.625 14.9803 17.4708 15.352 17.1623 15.6612C16.8539 15.9704 16.4831 16.125 16.05 16.125H3.45ZM3.45 14.5461H16.05V5.86184H3.45V14.5461ZM8.175 4.28289H11.325V2.70395H8.175V4.28289Z" fill="#177DA8"/>
</g>
</g>
</svg>
